<svg width="22" height="22" viewBox="0 0 22 22" fill="none" xmlns="http://www.w3.org/2000/svg">
<path fill-rule="evenodd" clip-rule="evenodd" d="M11 0C6.8519 0 4.7773 -1.19209e-07 3.4892 1.2892C2.3188 2.4585 2.211 4.2746 2.2 7.7H1.1C0.808262 7.7 0.528473 7.81589 0.322183 8.02218C0.115892 8.22847 0 8.50826 0 8.8V9.9C0 10.0708 0.0397595 10.2392 0.11613 10.3919C0.1925 10.5447 0.303384 10.6775 0.44 10.78L2.2 12.1C2.211 15.5254 2.3188 17.3415 3.4892 18.5108C3.7554 18.7781 4.0546 18.9893 4.4 19.1565V20.9C4.4 21.1917 4.51589 21.4715 4.72218 21.6778C4.92847 21.8841 5.20826 22 5.5 22H7.15C7.44174 22 7.72153 21.8841 7.92782 21.6778C8.13411 21.4715 8.25 21.1917 8.25 20.9V19.7802C9.0497 19.8 9.9594 19.8 11 19.8C12.0406 19.8 12.9503 19.8 13.75 19.7802V20.9C13.75 21.1917 13.8659 21.4715 14.0722 21.6778C14.2785 21.8841 14.5583 22 14.85 22H16.5C16.7917 22 17.0715 21.8841 17.2778 21.6778C17.4841 21.4715 17.6 21.1917 17.6 20.9V19.1565C17.9379 18.9942 18.2458 18.7759 18.5108 18.5108C19.6812 17.3415 19.7901 15.5254 19.8 12.1L21.56 10.78C21.6966 10.6775 21.8075 10.5447 21.8839 10.3919C21.9602 10.2392 22 10.0708 22 9.9V8.8C22 8.50826 21.8841 8.22847 21.6778 8.02218C21.4715 7.81589 21.1917 7.7 20.9 7.7H19.8C19.789 4.2746 19.6812 2.4585 18.5108 1.2892C17.2227 -1.19209e-07 15.1481 0 11 0ZM3.85 8.25C3.85 9.8054 3.85 10.5831 4.334 11.066C4.8169 11.55 5.5946 11.55 7.15 11.55H14.85C16.4054 11.55 17.1831 11.55 17.666 11.066C18.15 10.5831 18.15 9.8054 18.15 8.25V5.5C18.15 3.9446 18.15 3.1669 17.666 2.684C17.1842 2.2 16.4065 2.2 14.85 2.2H7.15C5.5946 2.2 4.8169 2.2 4.334 2.684C3.85 3.1658 3.85 3.9435 3.85 5.5V8.25ZM4.675 15.4C4.675 15.1812 4.76192 14.9714 4.91664 14.8166C5.07135 14.6619 5.2812 14.575 5.5 14.575H7.15C7.3688 14.575 7.57865 14.6619 7.73336 14.8166C7.88808 14.9714 7.975 15.1812 7.975 15.4C7.975 15.6188 7.88808 15.8286 7.73336 15.9834C7.57865 16.1381 7.3688 16.225 7.15 16.225H5.5C5.2812 16.225 5.07135 16.1381 4.91664 15.9834C4.76192 15.8286 4.675 15.6188 4.675 15.4ZM17.325 15.4C17.325 15.1812 17.2381 14.9714 17.0834 14.8166C16.9286 14.6619 16.7188 14.575 16.5 14.575H14.85C14.6312 14.575 14.4214 14.6619 14.2666 14.8166C14.1119 14.9714 14.025 15.1812 14.025 15.4C14.025 15.6188 14.1119 15.8286 14.2666 15.9834C14.4214 16.1381 14.6312 16.225 14.85 16.225H16.5C16.7188 16.225 16.9286 16.1381 17.0834 15.9834C17.2381 15.8286 17.325 15.6188 17.325 15.4Z" fill="black"/>
</svg>
