<svg width="22" height="22" viewBox="0 0 22 22" fill="none" xmlns="http://www.w3.org/2000/svg">
<path d="M7.33342 19.25H3.66675C3.42363 19.25 3.19048 19.1534 3.01857 18.9815C2.84666 18.8096 2.75008 18.5765 2.75008 18.3334V14.6667C2.75008 14.4236 2.6535 14.1904 2.4816 14.0185C2.30969 13.8466 2.07653 13.75 1.83341 13.75C1.5903 13.75 1.35714 13.8466 1.18523 14.0185C1.01333 14.1904 0.916748 14.4236 0.916748 14.6667V18.3334C0.916748 19.0627 1.20648 19.7622 1.7222 20.2779C2.23793 20.7936 2.9374 21.0834 3.66675 21.0834H7.33342C7.57653 21.0834 7.80969 20.9868 7.9816 20.8149C8.1535 20.643 8.25008 20.4098 8.25008 20.1667C8.25008 19.9236 8.1535 19.6904 7.9816 19.5185C7.80969 19.3466 7.57653 19.25 7.33342 19.25ZM20.1667 13.75C19.9236 13.75 19.6905 13.8466 19.5186 14.0185C19.3467 14.1904 19.2501 14.4236 19.2501 14.6667V18.3334C19.2501 18.5765 19.1535 18.8096 18.9816 18.9815C18.8097 19.1534 18.5765 19.25 18.3334 19.25H14.6667C14.4236 19.25 14.1905 19.3466 14.0186 19.5185C13.8467 19.6904 13.7501 19.9236 13.7501 20.1667C13.7501 20.4098 13.8467 20.643 14.0186 20.8149C14.1905 20.9868 14.4236 21.0834 14.6667 21.0834H18.3334C19.0628 21.0834 19.7622 20.7936 20.278 20.2779C20.7937 19.7622 21.0834 19.0627 21.0834 18.3334V14.6667C21.0834 14.4236 20.9868 14.1904 20.8149 14.0185C20.643 13.8466 20.4099 13.75 20.1667 13.75ZM18.3334 0.916687H14.6667C14.4236 0.916687 14.1905 1.01326 14.0186 1.18517C13.8467 1.35708 13.7501 1.59024 13.7501 1.83335C13.7501 2.07647 13.8467 2.30963 14.0186 2.48154C14.1905 2.65344 14.4236 2.75002 14.6667 2.75002H18.3334C18.5765 2.75002 18.8097 2.8466 18.9816 3.01851C19.1535 3.19041 19.2501 3.42357 19.2501 3.66669V7.33335C19.2501 7.57647 19.3467 7.80963 19.5186 7.98154C19.6905 8.15344 19.9236 8.25002 20.1667 8.25002C20.4099 8.25002 20.643 8.15344 20.8149 7.98154C20.9868 7.80963 21.0834 7.57647 21.0834 7.33335V3.66669C21.0834 2.93734 20.7937 2.23787 20.278 1.72214C19.7622 1.20642 19.0628 0.916687 18.3334 0.916687ZM1.83341 8.25002C2.07653 8.25002 2.30969 8.15344 2.4816 7.98154C2.6535 7.80963 2.75008 7.57647 2.75008 7.33335V3.66669C2.75008 3.42357 2.84666 3.19041 3.01857 3.01851C3.19048 2.8466 3.42363 2.75002 3.66675 2.75002H7.33342C7.57653 2.75002 7.80969 2.65344 7.9816 2.48154C8.1535 2.30963 8.25008 2.07647 8.25008 1.83335C8.25008 1.59024 8.1535 1.35708 7.9816 1.18517C7.80969 1.01326 7.57653 0.916687 7.33342 0.916687H3.66675C2.9374 0.916687 2.23793 1.20642 1.7222 1.72214C1.20648 2.23787 0.916748 2.93734 0.916748 3.66669V7.33335C0.916748 7.57647 1.01333 7.80963 1.18523 7.98154C1.35714 8.15344 1.5903 8.25002 1.83341 8.25002ZM9.16675 4.58335H5.50008C5.25697 4.58335 5.02381 4.67993 4.8519 4.85184C4.67999 5.02375 4.58342 5.25691 4.58342 5.50002V9.16669C4.58342 9.4098 4.67999 9.64296 4.8519 9.81487C5.02381 9.98678 5.25697 10.0834 5.50008 10.0834H9.16675C9.40986 10.0834 9.64302 9.98678 9.81493 9.81487C9.98684 9.64296 10.0834 9.4098 10.0834 9.16669V5.50002C10.0834 5.25691 9.98684 5.02375 9.81493 4.85184C9.64302 4.67993 9.40986 4.58335 9.16675 4.58335ZM8.25008 8.25002H6.41675V6.41669H8.25008V8.25002ZM12.8334 10.0834H16.5001C16.7432 10.0834 16.9764 9.98678 17.1483 9.81487C17.3202 9.64296 17.4167 9.4098 17.4167 9.16669V5.50002C17.4167 5.25691 17.3202 5.02375 17.1483 4.85184C16.9764 4.67993 16.7432 4.58335 16.5001 4.58335H12.8334C12.5903 4.58335 12.3571 4.67993 12.1852 4.85184C12.0133 5.02375 11.9167 5.25691 11.9167 5.50002V9.16669C11.9167 9.4098 12.0133 9.64296 12.1852 9.81487C12.3571 9.98678 12.5903 10.0834 12.8334 10.0834ZM13.7501 6.41669H15.5834V8.25002H13.7501V6.41669ZM9.16675 11.9167H5.50008C5.25697 11.9167 5.02381 12.0133 4.8519 12.1852C4.67999 12.3571 4.58342 12.5902 4.58342 12.8334V16.5C4.58342 16.7431 4.67999 16.9763 4.8519 17.1482C5.02381 17.3201 5.25697 17.4167 5.50008 17.4167H9.16675C9.40986 17.4167 9.64302 17.3201 9.81493 17.1482C9.98684 16.9763 10.0834 16.7431 10.0834 16.5V12.8334C10.0834 12.5902 9.98684 12.3571 9.81493 12.1852C9.64302 12.0133 9.40986 11.9167 9.16675 11.9167ZM8.25008 15.5834H6.41675V13.75H8.25008V15.5834ZM12.8334 14.6667C13.0765 14.6667 13.3097 14.5701 13.4816 14.3982C13.6535 14.2263 13.7501 13.9931 13.7501 13.75C13.9932 13.75 14.2264 13.6534 14.3983 13.4815C14.5702 13.3096 14.6667 13.0765 14.6667 12.8334C14.6667 12.5902 14.5702 12.3571 14.3983 12.1852C14.2264 12.0133 13.9932 11.9167 13.7501 11.9167H12.8334C12.5903 11.9167 12.3571 12.0133 12.1852 12.1852C12.0133 12.3571 11.9167 12.5902 11.9167 12.8334V13.75C11.9167 13.9931 12.0133 14.2263 12.1852 14.3982C12.3571 14.5701 12.5903 14.6667 12.8334 14.6667ZM16.5001 11.9167C16.257 11.9167 16.0238 12.0133 15.8519 12.1852C15.68 12.3571 15.5834 12.5902 15.5834 12.8334V15.5834C15.3403 15.5834 15.1071 15.6799 14.9352 15.8518C14.7633 16.0237 14.6667 16.2569 14.6667 16.5C14.6667 16.7431 14.7633 16.9763 14.9352 17.1482C15.1071 17.3201 15.3403 17.4167 15.5834 17.4167H16.5001C16.7432 17.4167 16.9764 17.3201 17.1483 17.1482C17.3202 16.9763 17.4167 16.7431 17.4167 16.5V12.8334C17.4167 12.5902 17.3202 12.3571 17.1483 12.1852C16.9764 12.0133 16.7432 11.9167 16.5001 11.9167ZM12.8334 15.5834C12.6521 15.5834 12.4749 15.6371 12.3241 15.7378C12.1734 15.8386 12.0559 15.9817 11.9865 16.1492C11.9171 16.3167 11.899 16.501 11.9344 16.6789C11.9697 16.8567 12.057 17.02 12.1852 17.1482C12.3134 17.2764 12.4768 17.3637 12.6546 17.3991C12.8324 17.4344 13.0167 17.4163 13.1842 17.3469C13.3517 17.2775 13.4949 17.16 13.5956 17.0093C13.6963 16.8586 13.7501 16.6813 13.7501 16.5C13.7501 16.2569 13.6535 16.0237 13.4816 15.8518C13.3097 15.6799 13.0765 15.5834 12.8334 15.5834Z" fill="black"/>
</svg>
