<svg width="41" height="40" viewBox="0 0 41 40" fill="none" xmlns="http://www.w3.org/2000/svg">
<g id="ion:home">
<path id="Vector" d="M20.9344 7.9125C20.8181 7.80124 20.6633 7.73914 20.5023 7.73914C20.3414 7.73914 20.1866 7.80124 20.0703 7.9125L5.6875 21.6523C5.62642 21.7108 5.57782 21.781 5.54466 21.8587C5.51149 21.9365 5.49444 22.0202 5.49453 22.1047L5.49219 35C5.49219 35.663 5.75558 36.2989 6.22442 36.7678C6.69326 37.2366 7.32915 37.5 7.99219 37.5H15.5C15.8315 37.5 16.1495 37.3683 16.3839 37.1339C16.6183 36.8995 16.75 36.5815 16.75 36.25V25.625C16.75 25.4592 16.8158 25.3003 16.9331 25.1831C17.0503 25.0658 17.2092 25 17.375 25H23.625C23.7908 25 23.9497 25.0658 24.0669 25.1831C24.1842 25.3003 24.25 25.4592 24.25 25.625V36.25C24.25 36.5815 24.3817 36.8995 24.6161 37.1339C24.8505 37.3683 25.1685 37.5 25.5 37.5H33.0047C33.6677 37.5 34.3036 37.2366 34.7725 36.7678C35.2413 36.2989 35.5047 35.663 35.5047 35V22.1047C35.5048 22.0202 35.4877 21.9365 35.4546 21.8587C35.4214 21.781 35.3728 21.7108 35.3117 21.6523L20.9344 7.9125Z" fill="black"/>
<path id="Vector_2" d="M38.8524 19.0742L33.0086 13.4836V5C33.0086 4.66848 32.8769 4.35054 32.6425 4.11612C32.4081 3.8817 32.0901 3.75 31.7586 3.75H28.0086C27.6771 3.75 27.3592 3.8817 27.1247 4.11612C26.8903 4.35054 26.7586 4.66848 26.7586 5V7.5L22.2336 3.17344C21.8102 2.74531 21.1805 2.5 20.5 2.5C19.8219 2.5 19.1938 2.74531 18.7703 3.17422L2.15315 19.0727C1.66722 19.5414 1.60628 20.3125 2.04847 20.8203C2.15951 20.9485 2.29547 21.0527 2.44808 21.1267C2.60068 21.2007 2.76674 21.2428 2.93615 21.2506C3.10557 21.2583 3.27478 21.2315 3.4335 21.1718C3.59222 21.112 3.73713 21.0206 3.8594 20.9031L20.0703 5.4125C20.1867 5.30124 20.3414 5.23914 20.5024 5.23914C20.6633 5.23914 20.8181 5.30124 20.9344 5.4125L37.1469 20.9031C37.3857 21.1321 37.7056 21.2571 38.0364 21.2507C38.3673 21.2442 38.682 21.1069 38.9117 20.8687C39.3914 20.3719 39.3516 19.5516 38.8524 19.0742Z" fill="black"/>
</g>
</svg>
