<svg width="45" height="45" viewBox="0 0 45 45" fill="none" xmlns="http://www.w3.org/2000/svg">
<g id="raphael:books" clip-path="url(#clip0_98_1229)">
<path id="Vector" d="M37.6008 16.515C37.4825 16.4199 37.3405 16.3589 37.1902 16.3383C37.0398 16.3178 36.8867 16.3385 36.7472 16.3983L23.1628 22.2806C22.5722 22.538 21.8325 22.6603 21.0732 22.6603C20.0142 22.6645 18.9188 22.4184 18.1552 22.0837C17.9225 21.9857 17.7009 21.8632 17.4942 21.7181C17.5505 21.69 17.6208 21.659 17.6982 21.6281L30.0535 16.2787L31.8957 17.0662V14.7642C31.8984 14.6 31.8641 14.4374 31.7952 14.2883C31.7263 14.1393 31.6246 14.0078 31.4977 13.9036C31.3799 13.8086 31.2384 13.7476 31.0885 13.7271C30.9386 13.7065 30.7859 13.7272 30.6469 13.7869L17.0625 19.6692C16.6435 19.838 16.2835 20.0461 15.9797 20.3484C15.628 20.6954 15.4282 21.1678 15.4242 21.6619C15.4242 21.6759 15.4285 21.6998 15.4285 21.6998V42.4139L15.4257 42.442C15.4257 42.4476 15.4299 42.4505 15.4299 42.4561V42.4786H15.4327C15.4608 43.2028 15.8264 43.664 16.1752 43.9903C17.2721 44.9578 19.1142 45.4992 21.0746 45.5273C22.0027 45.5273 22.9449 45.3867 23.8167 45.0126L37.4053 39.1289C37.7639 38.9742 37.9988 38.5903 37.9988 38.1558V17.3756C38.0009 17.2115 37.9663 17.0491 37.8975 16.9001C37.8286 16.7512 37.7272 16.6196 37.6008 16.515ZM28.9847 12.5775C28.9608 12.2681 28.8328 11.9728 28.605 11.7956C28.4867 11.7006 28.3448 11.6395 28.1944 11.6189C28.044 11.5984 27.8909 11.6191 27.7514 11.6789L14.1671 17.5584C13.5764 17.8144 12.8353 17.9381 12.0774 17.9381C11.0185 17.9409 9.923 17.6948 9.1594 17.3587C8.92647 17.2624 8.70483 17.1407 8.49847 16.9959C8.55472 16.9678 8.62503 16.9369 8.70237 16.9059L21.0591 11.5565L22.9013 12.344V10.0448C22.9038 9.88057 22.8692 9.71786 22.8 9.56884C22.7309 9.41983 22.629 9.28834 22.5019 9.18421C22.3838 9.08929 22.2421 9.02829 22.092 9.00773C21.9419 8.98717 21.789 9.00782 21.6497 9.06749L8.06534 14.9512C7.64628 15.12 7.28769 15.3267 6.98253 15.6305C6.63131 15.9777 6.43206 16.45 6.42847 16.9439C6.42847 16.9608 6.43269 16.9833 6.43269 16.9833V37.7634H6.4355C6.46362 38.4876 6.82925 38.9489 7.178 39.2751C8.27487 40.2426 10.1171 40.7826 12.0788 40.8108C12.6115 40.8076 13.1426 40.7501 13.6636 40.6392V21.6984C13.6496 20.714 14.0433 19.769 14.7352 19.0884C15.2145 18.6235 15.784 18.2616 16.4086 18.0253L28.9847 12.5775Z" fill="black"/>
</g>
<defs>
<clipPath id="clip0_98_1229">
<rect width="45" height="45" fill="white"/>
</clipPath>
</defs>
</svg>
