<svg width="41" height="39" viewBox="0 0 41 39" fill="none" xmlns="http://www.w3.org/2000/svg">
<path id="Vector" d="M36.6415 29.4971C37.7312 29.4971 38.6498 29.8772 39.3973 30.6374C40.1449 31.3977 40.5124 32.2846 40.4997 33.2982L25.238 39L11.9339 35.1988V18.0936H15.64L29.4573 23.2061C30.4456 23.5989 30.9397 24.3085 30.9397 25.3348C30.9397 25.9303 30.7243 26.4498 30.2935 26.8933C29.8627 27.3368 29.3179 27.5712 28.659 27.5965H23.3374L20.0114 26.3231L19.3842 28.1097L23.3374 29.4971H36.6415ZM29.0392 3.32604C30.3822 1.76757 32.0928 0.988327 34.1707 0.988327C35.8939 0.988327 37.3511 1.62185 38.5421 2.88891C39.7331 4.15597 40.3666 5.61308 40.4427 7.26025C40.4427 8.56532 39.8091 10.1238 38.5421 11.9357C37.275 13.7476 36.027 15.2617 34.7979 16.4781C33.5689 17.6945 31.6493 19.5 29.0392 21.8947C26.4037 19.5 24.4651 17.6945 23.2234 16.4781C21.9817 15.2617 20.7336 13.7476 19.4792 11.9357C18.2248 10.1238 17.6103 8.56532 17.6357 7.26025C17.6357 5.53706 18.2502 4.07994 19.4792 2.88891C20.7083 1.69788 22.1907 1.06435 23.9266 0.988327C25.9539 0.988327 27.6581 1.76757 29.0392 3.32604ZM0.5 18.0936H8.13274V39H0.5V18.0936Z" fill="black"/>
</svg>
