<svg width="23" height="25" viewBox="0 0 23 25" fill="none" xmlns="http://www.w3.org/2000/svg">
<path d="M16.8556 12.0346L22.4741 6.01729L16.8556 0V3.61037H12.3608V8.4242H16.8556V12.0346ZM19.103 17.4501C17.6983 17.4501 16.3499 17.2094 15.0914 16.7642C14.6981 16.6318 14.2598 16.7281 13.9452 17.053L11.473 19.7006C8.29294 17.9676 5.68595 15.1876 4.06781 11.7698L6.53996 9.11017C6.8546 8.79727 6.94449 8.32793 6.82089 7.90672C6.40512 6.55884 6.18038 5.11469 6.18038 3.61037C6.18038 2.94847 5.67471 2.40691 5.05667 2.40691H1.1237C0.505667 2.40691 0 2.94847 0 3.61037C0 14.9108 8.55139 24.0691 19.103 24.0691C19.721 24.0691 20.2267 23.5276 20.2267 22.8657V18.6536C20.2267 17.9917 19.721 17.4501 19.103 17.4501Z" fill="black"/>
</svg>
