<svg width="56" height="60" viewBox="0 0 56 60" fill="none" xmlns="http://www.w3.org/2000/svg">
<path d="M48.9425 27.705C48.7925 32.5275 43.37 35.52 27.92 35.52C12.4375 35.52 7.025 32.5125 6.8975 27.6725C10.6675 27.6725 17.845 22.7775 27.92 22.7775C37.7375 22.775 45.78 27.705 48.9425 27.705ZM27.9225 37.93C22.7675 37.93 18.5725 37.6025 15.2275 36.9375C15.3825 38.325 16.4 45.2425 21.25 45.2425C25.5525 45.2425 25.4325 41.9525 28.0525 41.9525C30.67 41.9525 30.975 45.2425 35.1825 45.2425C40.4075 45.2425 41.3325 37.585 41.4175 36.77C37.95 37.5475 33.495 37.93 27.9225 37.93ZM43.935 36.0775C43.835 41.505 42.1425 48 38.235 52.17C35.615 54.9675 32.2925 56.3875 28.3625 56.3875C24.425 56.3875 21.1175 55.055 18.535 52.4325C14.42 48.25 12.78 41.57 12.545 36.28C11.2375 35.885 10.02 35.4125 8.835 34.71C8.795 40.89 10.595 49.565 15.8875 54.945C19.19 58.2975 23.3875 60 28.3625 60C33.2925 60 37.6425 58.1375 40.945 54.6175C46.2725 48.935 47.845 40.42 47.5975 34.34C46.45 35.11 45.2375 35.6425 43.935 36.0775ZM28.3425 8.6175L27.56 10.175L25.8075 10.425L27.075 11.6375L26.7775 13.35L28.3425 12.54L29.91 13.35L29.61 11.6375L30.8775 10.425L29.1275 10.175L28.3425 8.6175ZM46.37 8.1025C46.37 8.1025 40.0275 6.3875 28 0C15.97 6.3875 9.63 8.1025 9.63 8.1025C9.63 8.1025 6.3925 14.1025 0.5 20.6425L6.165 25.4125C9.9975 25 17.765 20.2075 28 20.2075C38.235 20.2075 46.0025 25 49.835 25.415L55.5 20.6425C49.6075 14.1025 46.37 8.1025 46.37 8.1025ZM30.5075 16.1375C29.1925 16.465 28.995 16.6075 28.32 17.1425C27.6475 16.6075 27.4475 16.465 26.1325 16.1375C24.305 15.68 23.255 14.4975 23.255 12.89C23.255 11.9925 23.6225 11.1625 24.05 10.025C24.53 8.7425 24.2575 8.3375 23.7525 7.82L23.325 7.38L25.7925 5.3325C26.0375 5.5775 26.38 6.0275 27.0075 6.0275C27.6275 6.0275 28.0475 5.59 28.3275 5.35C28.5825 5.575 28.9975 6.0275 29.635 6.0275C30.255 6.0275 30.5875 5.6 30.86 5.325L33.3175 7.3825L32.8875 7.8225C32.3825 8.34 32.11 8.745 32.59 10.0275C33.015 11.165 33.385 11.9925 33.385 12.8925C33.385 14.495 32.335 15.68 30.5075 16.1375Z" fill="black"/>
</svg>
