<svg width="57" height="75" viewBox="0 0 57 75" fill="none" xmlns="http://www.w3.org/2000/svg">
<path d="M48.717 54.3468H47.6601V34.5622C47.6601 23.9973 39.0651 15.4023 28.5002 15.4023C17.9353 15.4023 9.3403 23.9973 9.3403 34.5622V54.3468H8.28337C3.97364 54.3468 0.467529 57.8529 0.467529 62.1626V72.4284C0.467529 73.8487 1.61883 75 3.03912 75H53.9618C55.3821 75 56.5334 73.8487 56.5334 72.4284V62.1626C56.5329 57.8531 53.0268 54.3468 48.717 54.3468ZM14.4832 34.5625C14.4832 26.8335 20.7713 20.5457 28.5 20.5457C36.2286 20.5457 42.5167 26.8338 42.5167 34.5625V54.347H14.4832V34.5625ZM51.3897 69.8568H5.6102V62.1626C5.6102 60.6888 6.80908 59.49 8.28286 59.49H48.7168C50.1906 59.49 51.3894 60.6888 51.3894 62.1626V69.8568H51.3897Z" fill="white"/>
<path d="M28.5001 10.2861C29.9204 10.2861 31.0717 9.13481 31.0717 7.71452V2.57159C31.0717 1.1513 29.9204 0 28.5001 0C27.0798 0 25.9285 1.1513 25.9285 2.57159V7.71452C25.9285 9.13481 27.0798 10.2861 28.5001 10.2861Z" fill="white"/>
<path d="M5.59277 18.2683C6.095 18.7706 6.75307 19.0216 7.41114 19.0216C8.06921 19.0216 8.72754 18.7706 9.22952 18.2683C10.2337 17.2641 10.2337 15.6358 9.22952 14.6313L5.59328 10.9948C4.58908 9.99064 2.96074 9.99064 1.95628 10.9948C0.952073 11.9991 0.952073 13.6274 1.95628 14.6319L5.59277 18.2683Z" fill="white"/>
<path d="M49.5889 19.0213C50.2469 19.0213 50.9053 18.7703 51.4072 18.2681L55.0437 14.6316C56.0479 13.6274 56.0479 11.9991 55.0437 10.9946C54.0395 9.99038 52.4112 9.99038 51.4067 10.9946L47.7705 14.6313C46.7663 15.6355 46.7663 17.2639 47.7705 18.2683C48.2725 18.7703 48.9308 19.0213 49.5889 19.0213Z" fill="white"/>
<path d="M28.4999 23.357C22.3211 23.357 17.2942 28.3837 17.2942 34.5627C17.2942 35.983 18.4455 37.1343 19.8658 37.1343C21.2861 37.1343 22.4374 35.983 22.4374 34.5627C22.4374 31.2199 25.1571 28.5002 28.4999 28.5002C29.9202 28.5002 31.0715 27.3489 31.0715 25.9286C31.0715 24.5083 29.9202 23.357 28.4999 23.357Z" fill="white"/>
</svg>
