<svg width="36" height="36" viewBox="0 0 36 36" fill="none" xmlns="http://www.w3.org/2000/svg">
<path d="M16.6875 0.5C9.30425 0.507 5.48575 0.64 3.062 3.062C0.64 5.4875 0.507 9.30425 0.5 16.6875H9.0995C8.47024 15.9021 8.01832 14.9899 7.77475 14.0135C6.835 10.2475 10.2475 6.835 14.0135 7.77475C15.0145 8.025 15.921 8.48525 16.6875 9.0995V0.5ZM0.5 19.3125C0.507 26.694 0.64 30.5125 3.062 32.9362C5.4875 35.36 9.30425 35.4912 16.6875 35.5V21.7153C15.9972 23.0968 14.9357 24.2588 13.622 25.0708C12.3083 25.8828 10.7944 26.3128 9.25 26.3125C8.9019 26.3125 8.56806 26.1742 8.32192 25.9281C8.07578 25.6819 7.9375 25.3481 7.9375 25C7.9375 24.6519 8.07578 24.3181 8.32192 24.0719C8.56806 23.8258 8.9019 23.6875 9.25 23.6875C10.5303 23.6875 11.7732 23.2556 12.7777 22.4617C13.7822 21.6677 14.4895 20.5582 14.7852 19.3125H0.5ZM19.3125 35.5C26.694 35.4912 30.5125 35.36 32.9362 32.9362C35.36 30.5142 35.4912 26.694 35.5 19.3125H21.2148C21.5105 20.5582 22.2178 21.6677 23.2223 22.4617C24.2268 23.2556 25.4697 23.6875 26.75 23.6875C27.0981 23.6875 27.4319 23.8258 27.6781 24.0719C27.9242 24.3181 28.0625 24.6519 28.0625 25C28.0625 25.3481 27.9242 25.6819 27.6781 25.9281C27.4319 26.1742 27.0981 26.3125 26.75 26.3125C25.2056 26.3128 23.6917 25.8828 22.378 25.0708C21.0643 24.2588 20.0028 23.0968 19.3125 21.7153V35.5ZM35.5 16.6875C35.4912 9.30425 35.36 5.48575 32.9362 3.062C30.5142 0.64 26.694 0.507 19.3125 0.5V9.0995C20.0974 8.47051 21.0089 8.01861 21.9848 7.77475C25.7525 6.83325 29.1667 10.2458 28.2235 14.0135C27.9804 14.9898 27.5291 15.902 26.9005 16.6875H35.5Z" fill="black"/>
<path d="M13.3766 10.3228C14.322 10.5589 15.1615 11.1043 15.7614 11.8723C16.3613 12.6403 16.6873 13.5867 16.6876 14.5613V16.6875H14.5613C13.5868 16.6873 12.6403 16.3613 11.8723 15.7614C11.1043 15.1615 10.5589 14.322 10.3228 13.3765C10.2179 12.9547 10.2239 12.513 10.3401 12.0941C10.4564 11.6753 10.679 11.2937 10.9864 10.9864C11.2937 10.679 11.6753 10.4564 12.0942 10.3401C12.513 10.2238 12.9547 10.2179 13.3766 10.3228ZM19.3126 14.5613V16.6875H21.4388C23.4426 16.6875 25.1908 15.3225 25.6773 13.3765C25.7823 12.9545 25.7764 12.5126 25.6601 12.0936C25.5437 11.6746 25.3209 11.2928 25.0133 10.9854C24.7057 10.678 24.3239 10.4554 23.9048 10.3393C23.4857 10.2232 23.0437 10.2175 22.6218 10.3228C21.6766 10.5592 20.8376 11.1048 20.238 11.8727C19.6384 12.6407 19.3127 13.587 19.3126 14.5613Z" fill="black"/>
</svg>
