<svg width="21" height="27" viewBox="0 0 21 27" fill="none" xmlns="http://www.w3.org/2000/svg">
<path d="M17.3906 0C17.8646 0 18.334 0.0960266 18.7719 0.282597C19.2098 0.469168 19.6077 0.742629 19.9428 1.08737C20.278 1.4321 20.5439 1.84137 20.7253 2.29179C20.9066 2.74221 21 3.22497 21 3.7125V23.2875C21 23.775 20.9066 24.2578 20.7253 24.7082C20.5439 25.1586 20.278 25.5679 19.9428 25.9126C19.6077 26.2574 19.2098 26.5308 18.7719 26.7174C18.334 26.904 17.8646 27 17.3906 27H3.60938C3.13527 27 2.66582 26.9039 2.22782 26.7173C1.78983 26.5306 1.39188 26.257 1.0567 25.9122C0.721519 25.5673 0.455681 25.1579 0.27437 24.7073C0.0930596 24.2567 -0.000172161 23.7738 2.38659e-07 23.2862V3.7125C2.38659e-07 2.0115 1.11038 0.5805 2.625 0.13905V2.3625C2.226 2.6703 1.96875 3.159 1.96875 3.7125V23.2848C1.96875 24.2163 2.70375 24.9723 3.60938 24.9723H17.3906C18.2962 24.9723 19.0312 24.2163 19.0312 23.2848V3.7125C19.0312 2.781 18.2962 2.025 17.3906 2.025H14.4375V0H17.3906ZM13.125 0V10.9876C13.125 11.9961 12.075 12.3741 11.4319 12.019L11.3243 11.9488L8.53387 10.2141L5.8065 11.903C5.15025 12.389 4.06088 12.0919 3.94669 11.1496L3.9375 10.989V0H13.125ZM11.1562 2.025H5.90625V9.48105L7.97081 8.1999C8.1353 8.10996 8.31774 8.06024 8.50394 8.05462C8.69015 8.04901 8.87511 8.08763 9.04444 8.1675L11.1576 9.4824V2.025H11.1562Z" fill="black"/>
</svg>
