<svg width="20" height="16" viewBox="0 0 20 16" fill="none" xmlns="http://www.w3.org/2000/svg">
<path fill-rule="evenodd" clip-rule="evenodd" d="M13.3001 0.299988V1.69699C13.3001 1.91579 13.387 2.12563 13.5417 2.28035C13.6965 2.43507 13.9063 2.52199 14.1251 2.52199C14.3439 2.52199 14.5537 2.43507 14.7085 2.28035C14.8632 2.12563 14.9501 1.91579 14.9501 1.69699V0.299988H17.4251C17.7501 0.299988 18.072 0.364006 18.3722 0.488386C18.6725 0.612766 18.9454 0.795073 19.1752 1.0249C19.405 1.25472 19.5873 1.52757 19.7117 1.82785C19.8361 2.12813 19.9001 2.44997 19.9001 2.77499V5.66579C19.9001 5.83637 19.8472 6.00276 19.7487 6.14203C19.6502 6.28131 19.5109 6.38663 19.3501 6.44349C19.0278 6.55687 18.7487 6.76749 18.5512 7.0463C18.3537 7.3251 18.2476 7.65833 18.2476 7.99999C18.2476 8.34164 18.3537 8.67487 18.5512 8.95368C18.7487 9.23248 19.0278 9.44311 19.3501 9.55649C19.6801 9.67309 19.9001 9.98549 19.9001 10.3342V13.225C19.9001 13.55 19.8361 13.8718 19.7117 14.1721C19.5873 14.4724 19.405 14.7453 19.1752 14.9751C18.9454 15.2049 18.6725 15.3872 18.3722 15.5116C18.072 15.636 17.7501 15.7 17.4251 15.7H14.9501V14.303C14.9501 14.0842 14.8632 13.8743 14.7085 13.7196C14.5537 13.5649 14.3439 13.478 14.1251 13.478C13.9063 13.478 13.6965 13.5649 13.5417 13.7196C13.387 13.8743 13.3001 14.0842 13.3001 14.303V15.7H2.5751C1.91869 15.7 1.28916 15.4392 0.825008 14.9751C0.360856 14.5109 0.100098 13.8814 0.100098 13.225V10.3342C0.100098 9.98439 0.320098 9.67309 0.650098 9.55649C0.972392 9.44311 1.25154 9.23248 1.44902 8.95368C1.64649 8.67487 1.75255 8.34164 1.75255 7.99999C1.75255 7.65833 1.64649 7.3251 1.44902 7.0463C1.25154 6.76749 0.972392 6.55687 0.650098 6.44349C0.489268 6.38663 0.350019 6.28131 0.251522 6.14203C0.153024 6.00276 0.100122 5.83637 0.100098 5.66579V2.77499C0.100098 2.11858 0.360856 1.48905 0.825008 1.0249C1.28916 0.560746 1.91869 0.299988 2.5751 0.299988H13.3001ZM14.9501 5.13559C14.9501 4.91678 14.8632 4.70694 14.7085 4.55222C14.5537 4.39751 14.3439 4.31059 14.1251 4.31059C13.9063 4.31059 13.6965 4.39751 13.5417 4.55222C13.387 4.70694 13.3001 4.91678 13.3001 5.13559V6.28179C13.3001 6.50059 13.387 6.71043 13.5417 6.86515C13.6965 7.01987 13.9063 7.10679 14.1251 7.10679C14.3439 7.10679 14.5537 7.01987 14.7085 6.86515C14.8632 6.71043 14.9501 6.50059 14.9501 6.28179V5.13559ZM14.9501 9.71929C14.9501 9.50048 14.8632 9.29064 14.7085 9.13593C14.5537 8.98121 14.3439 8.89429 14.1251 8.89429C13.9063 8.89429 13.6965 8.98121 13.5417 9.13593C13.387 9.29064 13.3001 9.50048 13.3001 9.71929V10.8644C13.3001 11.0832 13.387 11.293 13.5417 11.4478C13.6965 11.6025 13.9063 11.6894 14.1251 11.6894C14.3439 11.6894 14.5537 11.6025 14.7085 11.4478C14.8632 11.293 14.9501 11.0832 14.9501 10.8644V9.71929ZM5.6001 8.82499C5.6001 8.60618 5.68702 8.39634 5.84173 8.24163C5.99645 8.08691 6.20629 7.99999 6.4251 7.99999H10.2751C10.4939 7.99999 10.7037 8.08691 10.8585 8.24163C11.0132 8.39634 11.1001 8.60618 11.1001 8.82499C11.1001 9.04379 11.0132 9.25363 10.8585 9.40835C10.7037 9.56307 10.4939 9.64999 10.2751 9.64999H6.4251C6.20629 9.64999 5.99645 9.56307 5.84173 9.40835C5.68702 9.25363 5.6001 9.04379 5.6001 8.82499ZM5.6001 11.575C5.6001 11.3562 5.68702 11.1463 5.84173 10.9916C5.99645 10.8369 6.20629 10.75 6.4251 10.75H8.0751C8.2939 10.75 8.50374 10.8369 8.65846 10.9916C8.81318 11.1463 8.9001 11.3562 8.9001 11.575C8.9001 11.7938 8.81318 12.0036 8.65846 12.1584C8.50374 12.3131 8.2939 12.4 8.0751 12.4H6.4251C6.20629 12.4 5.99645 12.3131 5.84173 12.1584C5.68702 12.0036 5.6001 11.7938 5.6001 11.575Z" fill="black"/>
</svg>
