<svg width="22" height="22" viewBox="0 0 22 22" fill="none" xmlns="http://www.w3.org/2000/svg">
<path d="M10.8225 0C4.8425 0 0 4.85333 0 10.8333C0 16.8133 4.8425 21.6667 10.8225 21.6667C16.8133 21.6667 21.6667 16.8133 21.6667 10.8333C21.6667 4.85333 16.8133 0 10.8225 0ZM10.8333 19.5C6.045 19.5 2.16667 15.6217 2.16667 10.8333C2.16667 6.045 6.045 2.16667 10.8333 2.16667C15.6217 2.16667 19.5 6.045 19.5 10.8333C19.5 15.6217 15.6217 19.5 10.8333 19.5ZM10.595 5.41667H10.53C10.0967 5.41667 9.75 5.76333 9.75 6.19667V11.31C9.75 11.6892 9.945 12.0467 10.2808 12.2417L14.7767 14.9392C15.145 15.1558 15.6217 15.0475 15.8383 14.6792C15.8927 14.5914 15.9289 14.4937 15.9447 14.3917C15.9606 14.2897 15.9557 14.1855 15.9304 14.0855C15.9051 13.9854 15.86 13.8914 15.7976 13.8092C15.7353 13.7269 15.657 13.658 15.5675 13.6067L11.375 11.115V6.19667C11.375 5.76333 11.0283 5.41667 10.595 5.41667Z" fill="black"/>
</svg>
