<svg width="40" height="44" viewBox="0 0 40 44" fill="none" xmlns="http://www.w3.org/2000/svg">
<path d="M28.7281 16.566C28.8201 16.632 28.9081 16.702 28.9941 16.776C28.9981 16.6874 29.0001 16.5987 29.0001 16.51V7.5C29.0001 6.30653 28.5259 5.16193 27.682 4.31802C26.8381 3.47411 25.6935 3 24.5001 3H17.5001V1.5L17.4881 1.298C17.4392 0.938188 17.2614 0.60833 16.9878 0.36963C16.7141 0.130931 16.3632 -0.000401762 16.0001 9.23276e-07L15.7961 0.0140009C15.4369 0.0632975 15.1078 0.240962 14.8696 0.51414C14.6313 0.787317 14.5001 1.13753 14.5001 1.5L14.4981 3H7.49806C6.30493 3.00053 5.16085 3.47487 4.31737 4.31873C3.47389 5.16258 3.00006 6.30687 3.00006 7.5V16.51C3.00006 17.7035 3.47416 18.8481 4.31808 19.692C5.16199 20.5359 6.30658 21.01 7.50006 21.01H23.0681L23.1081 20.904L23.1241 20.852L24.0241 18.084L24.0341 18.06C24.1929 17.6096 24.454 17.2021 24.7968 16.8697C25.1397 16.5373 25.5551 16.2889 26.0102 16.1441C26.4653 15.9993 26.9478 15.962 27.4197 16.0352C27.8917 16.1085 28.3382 16.2901 28.7281 16.566ZM11.5001 9C11.8342 8.99055 12.1668 9.04819 12.4783 9.16953C12.7897 9.29086 13.0737 9.47342 13.3133 9.70641C13.553 9.9394 13.7435 10.2181 13.8736 10.526C14.0037 10.8339 14.0708 11.1647 14.0708 11.499C14.0708 11.8333 14.0037 12.1641 13.8736 12.472C13.7435 12.7799 13.553 13.0586 13.3133 13.2916C13.0737 13.5246 12.7897 13.7071 12.4783 13.8285C12.1668 13.9498 11.8342 14.0075 11.5001 13.998C10.8495 13.9796 10.2318 13.7082 9.77817 13.2416C9.32454 12.7749 9.07076 12.1498 9.07076 11.499C9.07076 10.8482 9.32454 10.2231 9.77817 9.75641C10.2318 9.28977 10.8495 9.01841 11.5001 9ZM20.4841 9C20.8182 8.99055 21.1508 9.04819 21.4623 9.16953C21.7737 9.29086 22.0577 9.47342 22.2973 9.70641C22.537 9.9394 22.7275 10.2181 22.8576 10.526C22.9877 10.8339 23.0548 11.1647 23.0548 11.499C23.0548 11.8333 22.9877 12.1641 22.8576 12.472C22.7275 12.7799 22.537 13.0586 22.2973 13.2916C22.0577 13.5246 21.7737 13.7071 21.4623 13.8285C21.1508 13.9498 20.8182 14.0075 20.4841 13.998C19.8335 13.9796 19.2158 13.7082 18.7622 13.2416C18.3085 12.7749 18.0548 12.1498 18.0548 11.499C18.0548 10.8482 18.3085 10.2231 18.7622 9.75641C19.2158 9.28977 19.8335 9.01841 20.4841 9ZM18.0841 24.074L18.3101 24H4.50806C3.31458 24 2.16999 24.4741 1.32608 25.318C0.482162 26.1619 0.00805676 27.3065 0.00805676 28.5V30.314C0.00786124 31.3941 0.240968 32.4615 0.691432 33.4432C1.1419 34.4249 1.79909 35.2978 2.61806 36.002C5.74406 38.688 10.2221 40.002 16.0001 40.002C20.1521 40.002 23.6341 39.324 26.4261 37.946C25.8949 37.8454 25.3995 37.6071 24.9892 37.2551C24.579 36.9031 24.2682 36.4497 24.0881 35.94L24.0801 35.916L23.1801 33.146C23.0001 32.6035 22.696 32.1084 22.2921 31.704L21.5741 31.18L20.8561 30.814L18.0861 29.914L18.0621 29.904C17.4612 29.6901 16.9412 29.2954 16.5735 28.7742C16.2059 28.253 16.0085 27.6308 16.0085 26.993C16.0085 26.3552 16.2059 25.733 16.5735 25.2118C16.9412 24.6906 17.4612 24.2959 18.0621 24.082L18.0861 24.072L18.0841 24.074ZM23.7081 30.292C24.3323 30.9176 24.8015 31.6806 25.0781 32.52L25.9741 35.274C26.0485 35.487 26.1874 35.6715 26.3714 35.8021C26.5554 35.9327 26.7754 36.0028 27.0011 36.0028C27.2267 36.0028 27.4467 35.9327 27.6307 35.8021C27.8147 35.6715 27.9536 35.487 28.0281 35.274L28.9221 32.52C29.2005 31.6827 29.6706 30.9219 30.2949 30.2983C30.9192 29.6747 31.6804 29.2055 32.5181 28.928L35.2741 28.032C35.4847 27.9558 35.6668 27.8165 35.7955 27.6331C35.9242 27.4497 35.9933 27.2311 35.9933 27.007C35.9933 26.7829 35.9242 26.5643 35.7955 26.3809C35.6668 26.1975 35.4847 26.0582 35.2741 25.982L35.2201 25.968L32.4641 25.072C31.6269 24.7937 30.866 24.3242 30.2419 23.7007C29.6177 23.0772 29.1473 22.3169 28.8681 21.48L27.9721 18.726C27.8972 18.5137 27.7582 18.3299 27.5745 18.1999C27.3907 18.0699 27.1712 18 26.9461 18C26.7209 18 26.5014 18.0699 26.3176 18.1999C26.1339 18.3299 25.995 18.5137 25.9201 18.726L25.0241 21.48L25.0001 21.548C24.7201 22.3642 24.2577 23.1057 23.6481 23.7164C23.0385 24.327 22.2977 24.7906 21.4821 25.072L18.7281 25.968C18.5174 26.0442 18.3353 26.1835 18.2066 26.3669C18.0779 26.5503 18.0088 26.7689 18.0088 26.993C18.0088 27.2171 18.0779 27.4357 18.2066 27.6191C18.3353 27.8025 18.5174 27.9418 18.7281 28.018L21.4821 28.914C22.3221 29.194 23.0841 29.666 23.7081 30.292ZM38.0361 37.93L39.5661 38.426L39.5981 38.434C39.7162 38.4754 39.8185 38.5525 39.891 38.6546C39.9634 38.7567 40.0023 38.8788 40.0023 39.004C40.0023 39.1292 39.9634 39.2513 39.891 39.3534C39.8185 39.4555 39.7162 39.5326 39.5981 39.574L38.0661 40.07C37.6009 40.2247 37.1781 40.4856 36.8313 40.832C36.4845 41.1785 36.2232 41.601 36.0681 42.066L35.5721 43.596C35.5306 43.7141 35.4536 43.8165 35.3514 43.8889C35.2493 43.9613 35.1272 44.0002 35.0021 44.0002C34.8769 44.0002 34.7548 43.9613 34.6527 43.8889C34.5506 43.8165 34.4735 43.7141 34.4321 43.596L33.9321 42.068C33.7786 41.6015 33.5182 41.1773 33.1716 40.8294C32.8251 40.4814 32.4019 40.2193 31.9361 40.064L30.4041 39.566C30.2859 39.5246 30.1836 39.4475 30.1112 39.3454C30.0387 39.2433 29.9998 39.1212 29.9998 38.996C29.9998 38.8708 30.0387 38.7487 30.1112 38.6466C30.1836 38.5445 30.2859 38.4674 30.4041 38.426L31.9361 37.93C32.3953 37.7711 32.8117 37.5083 33.1527 37.1621C33.4937 36.8159 33.7501 36.3956 33.9021 35.934L34.4001 34.404C34.4415 34.2859 34.5186 34.1835 34.6207 34.1111C34.7228 34.0387 34.8449 33.9998 34.9701 33.9998C35.0952 33.9998 35.2173 34.0387 35.3194 34.1111C35.4216 34.1835 35.4986 34.2859 35.5401 34.404L36.0381 35.932C36.1925 36.3976 36.4536 36.8207 36.8005 37.1676C37.1473 37.5145 37.5704 37.7755 38.0361 37.93Z" fill="black"/>
</svg>
