<svg width="33" height="31" viewBox="0 0 33 31" fill="none" xmlns="http://www.w3.org/2000/svg">
<path d="M4.74219 30.8125H0.914062C0.696502 30.8125 0.487852 30.7261 0.334014 30.5722C0.180176 30.4184 0.09375 30.2097 0.09375 29.9922V4.28906C0.09375 4.0715 0.180176 3.86285 0.334014 3.70901C0.487852 3.55518 0.696502 3.46875 0.914062 3.46875H4.74219C4.95975 3.46875 5.1684 3.55518 5.32224 3.70901C5.47607 3.86285 5.5625 4.0715 5.5625 4.28906V29.9922C5.5625 30.2097 5.47607 30.4184 5.32224 30.5722C5.1684 30.7261 4.95975 30.8125 4.74219 30.8125ZM15.4062 12.2188V8.66406C15.4062 8.4465 15.3198 8.23785 15.166 8.08401C15.0121 7.93018 14.8035 7.84375 14.5859 7.84375H7.47656C7.259 7.84375 7.05035 7.93018 6.89651 8.08401C6.74268 8.23785 6.65625 8.4465 6.65625 8.66406V12.2188H15.4062ZM6.65625 26.4375V29.9922C6.65625 30.2097 6.74268 30.4184 6.89651 30.5722C7.05035 30.7261 7.259 30.8125 7.47656 30.8125H14.5859C14.8035 30.8125 15.0121 30.7261 15.166 30.5722C15.3198 30.4184 15.4062 30.2097 15.4062 29.9922V26.4375H6.65625ZM6.65625 14.4062H15.4062V24.25H6.65625V14.4062ZM22.2422 30.8125H17.3203C17.1028 30.8125 16.8941 30.7261 16.7403 30.5722C16.5864 30.4184 16.5 30.2097 16.5 29.9922V1.00781C16.5 0.790252 16.5864 0.581602 16.7403 0.427764C16.8941 0.273925 17.1028 0.1875 17.3203 0.1875H22.2422C22.4597 0.1875 22.6684 0.273925 22.8222 0.427764C22.9761 0.581602 23.0625 0.790252 23.0625 1.00781V29.9922C23.0625 30.2097 22.9761 30.4184 22.8222 30.5722C22.6684 30.7261 22.4597 30.8125 22.2422 30.8125ZM24.2246 4.88379L26.2754 30.0284C26.2845 30.1387 26.3158 30.246 26.3674 30.3438C26.4191 30.4417 26.49 30.5281 26.5759 30.5978C26.6618 30.6675 26.7609 30.7192 26.8672 30.7496C26.9736 30.78 27.085 30.7886 27.1948 30.7749L32.1276 30.1597C32.3377 30.1334 32.5294 30.027 32.6628 29.8626C32.7962 29.6983 32.8609 29.4888 32.8434 29.2778L30.7871 4.23506C30.7781 4.12629 30.7474 4.02042 30.6969 3.92366C30.6464 3.82689 30.5771 3.74117 30.4931 3.67153C30.409 3.60188 30.312 3.5497 30.2075 3.51805C30.103 3.4864 29.9933 3.47592 29.8848 3.48721L24.954 4.00059C24.7412 4.02358 24.5459 4.1288 24.4096 4.2938C24.2734 4.4588 24.207 4.67052 24.2246 4.88379Z" fill="black"/>
</svg>
