<svg width="46" height="38" viewBox="0 0 46 38" fill="none" xmlns="http://www.w3.org/2000/svg">
<path d="M10.64 26.3467C11.0432 26.2291 11.4765 26.2765 11.8447 26.4784C12.2129 26.6803 12.4858 27.0202 12.6034 27.4234C12.721 27.8265 12.6736 28.2598 12.4717 28.628C12.2697 28.9962 11.9298 29.2691 11.5267 29.3867C10.735 29.6179 10.165 29.8617 9.79929 30.0834C10.1761 30.3098 10.7715 30.5631 11.598 30.799C13.4267 31.3215 16.044 31.6667 19 31.6667C21.9561 31.6667 24.5734 31.3215 26.4021 30.799C27.2302 30.5631 27.824 30.3098 28.2008 30.0834C27.8366 29.8617 27.2666 29.6179 26.475 29.3867C26.0782 29.2639 25.7455 28.9902 25.5487 28.6244C25.3518 28.2587 25.3066 27.8303 25.4227 27.4315C25.5388 27.0327 25.807 26.6955 26.1694 26.4926C26.5318 26.2897 26.9594 26.2373 27.36 26.3467C28.4177 26.6554 29.3867 27.0513 30.1309 27.5595C30.8196 28.0329 31.6667 28.8579 31.6667 30.0834C31.6667 31.3231 30.799 32.1544 30.0992 32.6278C29.3424 33.1376 28.3528 33.535 27.2714 33.8438C25.0895 34.4692 22.1667 34.8334 19 34.8334C15.8334 34.8334 12.9105 34.4692 10.7287 33.8438C9.64729 33.535 8.65771 33.1376 7.90087 32.6278C7.20104 32.1528 6.33337 31.3231 6.33337 30.0834C6.33337 28.8579 7.18046 28.0329 7.86921 27.5595C8.61337 27.0513 9.58237 26.6554 10.64 26.3467ZM19 3.16669C22.1495 3.16669 25.1699 4.4178 27.3969 6.64479C29.6239 8.87179 30.875 11.8922 30.875 15.0417C30.875 19.1077 28.6584 22.4137 26.3625 24.7634C25.4499 25.6879 24.4692 26.5427 23.4286 27.3204C22.4881 28.0266 20.338 29.3503 20.338 29.3503C19.9302 29.5821 19.4691 29.7039 19 29.7039C18.531 29.7039 18.0699 29.5821 17.6621 29.3503C16.5946 28.7323 15.5627 28.0546 14.5715 27.3204C13.5305 26.5432 12.5497 25.6884 11.6375 24.7634C9.34171 22.4137 7.12504 19.1077 7.12504 15.0417C7.12504 11.8922 8.37615 8.87179 10.6031 6.64479C12.8301 4.4178 15.8506 3.16669 19 3.16669ZM19 11.875C18.1602 11.875 17.3547 12.2087 16.7609 12.8025C16.167 13.3964 15.8334 14.2018 15.8334 15.0417C15.8334 15.8815 16.167 16.687 16.7609 17.2809C17.3547 17.8747 18.1602 18.2084 19 18.2084C19.8399 18.2084 20.6453 17.8747 21.2392 17.2809C21.8331 16.687 22.1667 15.8815 22.1667 15.0417C22.1667 14.2018 21.8331 13.3964 21.2392 12.8025C20.6453 12.2087 19.8399 11.875 19 11.875Z" fill="black"/>
<path fill-rule="evenodd" clip-rule="evenodd" d="M38 17C34.9832 17 33.4744 17 32.5376 17.9376C31.6864 18.788 31.608 20.1088 31.6 22.6H30.8C30.5878 22.6 30.3843 22.6843 30.2343 22.8343C30.0843 22.9843 30 23.1878 30 23.4V24.2C30 24.3242 30.0289 24.4467 30.0845 24.5578C30.14 24.6689 30.2206 24.7655 30.32 24.84L31.6 25.8C31.608 28.2912 31.6864 29.612 32.5376 30.4624C32.7312 30.6568 32.9488 30.8104 33.2 30.932V32.2C33.2 32.4122 33.2843 32.6157 33.4343 32.7657C33.5843 32.9157 33.7878 33 34 33H35.2C35.4122 33 35.6157 32.9157 35.7657 32.7657C35.9157 32.6157 36 32.4122 36 32.2V31.3856C36.5816 31.4 37.2432 31.4 38 31.4C38.7568 31.4 39.4184 31.4 40 31.3856V32.2C40 32.4122 40.0843 32.6157 40.2343 32.7657C40.3843 32.9157 40.5878 33 40.8 33H42C42.2122 33 42.4157 32.9157 42.5657 32.7657C42.7157 32.6157 42.8 32.4122 42.8 32.2V30.932C43.0457 30.814 43.2697 30.6552 43.4624 30.4624C44.3136 29.612 44.3928 28.2912 44.4 25.8L45.68 24.84C45.7794 24.7655 45.86 24.6689 45.9155 24.5578C45.9711 24.4467 46 24.3242 46 24.2V23.4C46 23.1878 45.9157 22.9843 45.7657 22.8343C45.6157 22.6843 45.4122 22.6 45.2 22.6H44.4C44.392 20.1088 44.3136 18.788 43.4624 17.9376C42.5256 17 41.0168 17 38 17ZM32.8 23C32.8 24.1312 32.8 24.6968 33.152 25.048C33.5032 25.4 34.0688 25.4 35.2 25.4H40.8C41.9312 25.4 42.4968 25.4 42.848 25.048C43.2 24.6968 43.2 24.1312 43.2 23V21C43.2 19.8688 43.2 19.3032 42.848 18.952C42.4976 18.6 41.932 18.6 40.8 18.6H35.2C34.0688 18.6 33.5032 18.6 33.152 18.952C32.8 19.3024 32.8 19.868 32.8 21V23ZM33.4 28.2C33.4 28.0409 33.4632 27.8883 33.5757 27.7757C33.6883 27.6632 33.8409 27.6 34 27.6H35.2C35.3591 27.6 35.5117 27.6632 35.6243 27.7757C35.7368 27.8883 35.8 28.0409 35.8 28.2C35.8 28.3591 35.7368 28.5117 35.6243 28.6243C35.5117 28.7368 35.3591 28.8 35.2 28.8H34C33.8409 28.8 33.6883 28.7368 33.5757 28.6243C33.4632 28.5117 33.4 28.3591 33.4 28.2ZM42.6 28.2C42.6 28.0409 42.5368 27.8883 42.4243 27.7757C42.3117 27.6632 42.1591 27.6 42 27.6H40.8C40.6409 27.6 40.4883 27.6632 40.3757 27.7757C40.2632 27.8883 40.2 28.0409 40.2 28.2C40.2 28.3591 40.2632 28.5117 40.3757 28.6243C40.4883 28.7368 40.6409 28.8 40.8 28.8H42C42.1591 28.8 42.3117 28.7368 42.4243 28.6243C42.5368 28.5117 42.6 28.3591 42.6 28.2Z" fill="black"/>
</svg>
