<svg width="28" height="28" viewBox="0 0 28 28" fill="none" xmlns="http://www.w3.org/2000/svg">
<path fill-rule="evenodd" clip-rule="evenodd" d="M5 11.75C4.60218 11.75 4.22064 11.908 3.93934 12.1893C3.65804 12.4706 3.5 12.8522 3.5 13.25V14.75C3.5 15.1478 3.65804 15.5294 3.93934 15.8107C4.22064 16.092 4.60218 16.25 5 16.25H6.5C6.89782 16.25 7.27936 16.092 7.56066 15.8107C7.84196 15.5294 8 15.1478 8 14.75V13.25C8 12.8522 7.84196 12.4706 7.56066 12.1893C7.27936 11.908 6.89782 11.75 6.5 11.75H5ZM5 13.25V14.75H6.5V13.25H5ZM9.5 13.25C9.5 12.8522 9.65804 12.4706 9.93934 12.1893C10.2206 11.908 10.6022 11.75 11 11.75H12.5C12.8978 11.75 13.2794 11.908 13.5607 12.1893C13.842 12.4706 14 12.8522 14 13.25V14.75C14 15.1478 13.842 15.5294 13.5607 15.8107C13.2794 16.092 12.8978 16.25 12.5 16.25H11C10.6022 16.25 10.2206 16.092 9.93934 15.8107C9.65804 15.5294 9.5 15.1478 9.5 14.75V13.25ZM11 13.25H12.5V14.75H11V13.25ZM17 11.75C16.6022 11.75 16.2206 11.908 15.9393 12.1893C15.658 12.4706 15.5 12.8522 15.5 13.25V14.75C15.5 15.1478 15.658 15.5294 15.9393 15.8107C16.2206 16.092 16.6022 16.25 17 16.25H18.5C18.8978 16.25 19.2794 16.092 19.5607 15.8107C19.842 15.5294 20 15.1478 20 14.75V13.25C20 12.8522 19.842 12.4706 19.5607 12.1893C19.2794 11.908 18.8978 11.75 18.5 11.75H17ZM17 13.25V14.75H18.5V13.25H17ZM3.5 19.25C3.5 18.8522 3.65804 18.4706 3.93934 18.1893C4.22064 17.908 4.60218 17.75 5 17.75H6.5C6.89782 17.75 7.27936 17.908 7.56066 18.1893C7.84196 18.4706 8 18.8522 8 19.25V20.75C8 21.1478 7.84196 21.5294 7.56066 21.8107C7.27936 22.092 6.89782 22.25 6.5 22.25H5C4.60218 22.25 4.22064 22.092 3.93934 21.8107C3.65804 21.5294 3.5 21.1478 3.5 20.75V19.25ZM6.5 19.25V20.75H5V19.25H6.5ZM11 17.75C10.6022 17.75 10.2206 17.908 9.93934 18.1893C9.65804 18.4706 9.5 18.8522 9.5 19.25V20.75C9.5 21.1478 9.65804 21.5294 9.93934 21.8107C10.2206 22.092 10.6022 22.25 11 22.25H12.5C12.8978 22.25 13.2794 22.092 13.5607 21.8107C13.842 21.5294 14 21.1478 14 20.75V19.25C14 18.8522 13.842 18.4706 13.5607 18.1893C13.2794 17.908 12.8978 17.75 12.5 17.75H11ZM12.5 19.25H11V20.75H12.5V19.25Z" fill="black"/>
<path d="M23 20.375C23 20.1761 22.921 19.9853 22.7803 19.8447C22.6397 19.704 22.4489 19.625 22.25 19.625C22.0511 19.625 21.8603 19.704 21.7197 19.8447C21.579 19.9853 21.5 20.1761 21.5 20.375V22.5605L22.4697 23.5303C22.6112 23.6669 22.8007 23.7425 22.9973 23.7408C23.1939 23.739 23.3821 23.6602 23.5211 23.5211C23.6602 23.3821 23.739 23.1939 23.7408 22.9973C23.7425 22.8007 23.6669 22.6112 23.5303 22.4697L23 21.9395V20.375Z" fill="black"/>
<path fill-rule="evenodd" clip-rule="evenodd" d="M5 1.25C5 1.05109 5.07902 0.860322 5.21967 0.71967C5.36032 0.579018 5.55109 0.5 5.75 0.5C5.94891 0.5 6.13968 0.579018 6.28033 0.71967C6.42098 0.860322 6.5 1.05109 6.5 1.25V5C6.5 5.19891 6.57902 5.38968 6.71967 5.53033C6.86032 5.67098 7.05109 5.75 7.25 5.75C7.44891 5.75 7.63968 5.67098 7.78033 5.53033C7.92098 5.38968 8 5.19891 8 5V2.75H15.5V1.25C15.5 1.05109 15.579 0.860322 15.7197 0.71967C15.8603 0.579018 16.0511 0.5 16.25 0.5C16.4489 0.5 16.6397 0.579018 16.7803 0.71967C16.921 0.860322 17 1.05109 17 1.25V5C17 5.19891 17.079 5.38968 17.2197 5.53033C17.3603 5.67098 17.5511 5.75 17.75 5.75C17.9489 5.75 18.1397 5.67098 18.2803 5.53033C18.421 5.38968 18.5 5.19891 18.5 5V2.75H20.75C21.3467 2.75 21.919 2.98705 22.341 3.40901C22.7629 3.83097 23 4.40326 23 5V17.0525C24.3137 17.2424 25.5067 17.9227 26.339 18.9566C27.1713 19.9905 27.5812 21.3013 27.4862 22.6252C27.3911 23.9491 26.7982 25.1879 25.8267 26.0923C24.8553 26.9968 23.5773 27.4997 22.25 27.5C21.4035 27.5006 20.5695 27.2962 19.8192 26.9044C19.0689 26.5126 18.4245 25.9449 17.9412 25.25H2.75C2.15326 25.25 1.58097 25.0129 1.15901 24.591C0.737053 24.169 0.5 23.5967 0.5 23V5C0.5 4.40326 0.737053 3.83097 1.15901 3.40901C1.58097 2.98705 2.15326 2.75 2.75 2.75H5V1.25ZM17 22.25C16.9998 20.9874 17.4547 19.767 18.2811 18.8124C19.1076 17.8578 20.2503 17.233 21.5 17.0525V9.5H2V23C2 23.1989 2.07902 23.3897 2.21967 23.5303C2.36032 23.671 2.55109 23.75 2.75 23.75H17.2175C17.0728 23.2632 16.9996 22.7579 17 22.25ZM26 22.25C26 23.2446 25.6049 24.1984 24.9016 24.9016C24.1984 25.6049 23.2446 26 22.25 26C21.2554 26 20.3016 25.6049 19.5984 24.9016C18.8951 24.1984 18.5 23.2446 18.5 22.25C18.5 21.2554 18.8951 20.3016 19.5984 19.5984C20.3016 18.8951 21.2554 18.5 22.25 18.5C23.2446 18.5 24.1984 18.8951 24.9016 19.5984C25.6049 20.3016 26 21.2554 26 22.25Z" fill="black"/>
</svg>
