<svg width="78" height="78" viewBox="0 0 78 78" fill="none" xmlns="http://www.w3.org/2000/svg">
<g id="ion:id-card">
<path id="Vector" d="M55.7636 3.05792H22.2005C19.6581 3.0607 17.2206 4.0719 15.4228 5.86967C13.6251 7.66744 12.6139 10.1049 12.6111 12.6474V65.3893C12.6139 67.9318 13.6251 70.3693 15.4228 72.167C17.2206 73.9648 19.6581 74.976 22.2005 74.9788H55.7636C58.306 74.976 60.7435 73.9648 62.5413 72.167C64.3391 70.3693 65.3503 67.9318 65.3531 65.3893V12.6474C65.3503 10.1049 64.3391 7.66744 62.5413 5.86967C60.7435 4.0719 58.306 3.0607 55.7636 3.05792ZM50.5913 43.2902C51.7256 44.5143 52.2799 46.161 52.1481 47.9261C51.8889 51.4412 49.2083 54.3015 46.1742 54.3015C43.14 54.3015 40.455 51.4412 40.1987 47.9261C40.0699 46.143 40.6198 44.4933 41.748 43.2812C42.8763 42.069 44.4361 41.4157 46.1742 41.4157C47.0003 41.4038 47.8198 41.5644 48.5804 41.8871C49.341 42.2099 50.0258 42.6877 50.5913 43.2902ZM29.3926 12.6474C29.3926 12.0116 29.6452 11.4018 30.0948 10.9522C30.5444 10.5026 31.1542 10.25 31.79 10.25H46.1742C46.81 10.25 47.4198 10.5026 47.8694 10.9522C48.3189 11.4018 48.5715 12.0116 48.5715 12.6474C48.5715 13.2832 48.3189 13.893 47.8694 14.3426C47.4198 14.7922 46.81 15.0447 46.1742 15.0447H31.79C31.1542 15.0447 30.5444 14.7922 30.0948 14.3426C29.6452 13.893 29.3926 13.2832 29.3926 12.6474ZM57.7115 67.1619C57.5388 67.3617 57.3244 67.5212 57.0834 67.6292C56.8423 67.7372 56.5806 67.7909 56.3165 67.7867H36.0318C35.7678 67.7909 35.506 67.7372 35.265 67.6292C35.0239 67.5212 34.8095 67.3617 34.6369 67.1619C34.4496 66.9376 34.3153 66.6741 34.2437 66.3909C34.1721 66.1077 34.1651 65.812 34.2233 65.5257C34.7103 62.8946 36.2281 60.6845 38.6135 59.1337C40.7321 57.7567 43.4172 56.9986 46.1742 56.9986C48.9311 56.9986 51.6162 57.7567 53.7348 59.1337C56.1202 60.6845 57.638 62.8946 58.125 65.5257C58.1832 65.812 58.1762 66.1077 58.1046 66.3909C58.0331 66.6741 57.8987 66.9376 57.7115 67.1619Z" fill="white"/>
</g>
</svg>
