<svg width="15" height="14" viewBox="0 0 15 14" fill="none" xmlns="http://www.w3.org/2000/svg">
<path d="M13.0843 13.75L8.2358 9.025C7.851 9.325 7.40847 9.5625 6.90823 9.7375C6.40798 9.9125 5.87567 10 5.31129 10C3.91317 10 2.73002 9.528 1.76186 8.584C0.793691 7.64 0.309351 6.487 0.308838 5.125C0.308838 3.7625 0.793178 2.6095 1.76186 1.666C2.73054 0.7225 3.91368 0.2505 5.31129 0.25C6.70941 0.25 7.89255 0.722 8.86072 1.666C9.82889 2.61 10.3132 3.763 10.3137 5.125C10.3137 5.675 10.224 6.19375 10.0444 6.68125C9.8648 7.16875 9.62109 7.6 9.31325 7.975L14.1618 12.7L13.0843 13.75ZM5.31129 8.5C6.2733 8.5 7.09114 8.17175 7.7648 7.51525C8.43846 6.85875 8.77504 6.062 8.77452 5.125C8.77452 4.1875 8.43769 3.3905 7.76403 2.734C7.09037 2.0775 6.27279 1.7495 5.31129 1.75C4.34928 1.75 3.53144 2.07825 2.85778 2.73475C2.18412 3.39125 1.84754 4.188 1.84805 5.125C1.84805 6.0625 2.18489 6.8595 2.85855 7.516C3.53221 8.1725 4.34979 8.5005 5.31129 8.5Z" fill="black"/>
</svg>
